<svg width="24" height="24" viewBox="0 0 24 24" fill="none" xmlns="http://www.w3.org/2000/svg">
<path d="M20 12C20 16.4183 16.4183 20 12 20C8.22522 20 5.06106 17.3856 4.21945 13.8688C4.10205 13.3782 3.68329 13 3.17885 13H3.15358C2.56224 13 2.09591 13.5126 2.21895 14.091C3.18034 18.6101 7.19429 22 12 22C17.5229 22 22 17.5228 22 12C22 6.47715 17.5229 2 12 2C8.41135 2 5.26421 3.89033 3.5 6.72958V4.5C3.5 3.94772 3.05228 3.5 2.5 3.5C2.46548 3.5 2.43137 3.50175 2.39776 3.50516C1.8935 3.55637 1.5 3.98223 1.5 4.5V9C1.5 9.26522 1.60536 9.51957 1.79289 9.70711C1.98043 9.89464 2.23478 10 2.5 10L7 10C7.55229 10 8 9.55228 8 9C8 8.44771 7.55228 8 7 8L5.07026 8C6.4535 5.60879 9.03887 4 12 4C16.4183 4 20 7.58172 20 12Z" fill="grey"/>
<path d="M12 7.5C11.4477 7.5 11 7.94772 11 8.5V12C11 12.3573 11.1906 12.6874 11.5 12.866L14.9641 14.866C15.0239 14.9005 15.0858 14.9282 15.1488 14.9492C15.5901 15.0963 16.0885 14.9185 16.3301 14.5C16.6063 14.0217 16.4424 13.4101 15.9641 13.134L13 11.4227V8.5C13 7.94772 12.5523 7.5 12 7.5Z" fill="grey"/>
</svg>
