<svg width="24" height="24" viewBox="0 0 24 24" fill="none" xmlns="http://www.w3.org/2000/svg">
<path d="M14 14C14 14.5523 13.5523 15 13 15H9C8.44771 15 8 14.5523 8 14C8 13.4477 8.44771 13 9 13H13C13.5523 13 14 13.4477 14 14Z" fill="#8B909A"/>
<path d="M16 10C16 10.5523 15.5523 11 15 11H9C8.44771 11 8 10.5523 8 10C8 9.44771 8.44771 9 9 9H15C15.5523 9 16 9.44771 16 10Z" fill="#8B909A"/>
<path fill-rule="evenodd" clip-rule="evenodd" d="M19.4142 6.41422C19.7893 6.78929 20 7.298 20 7.82843V20C20 21.1046 19.1046 22 18 22H6C4.89543 22 4 21.1046 4 20V4C4 2.89543 4.89543 2 6 2H14.1716C14.702 2 15.2107 2.21071 15.5858 2.58578L19.4142 6.41422ZM18 7.82843V20H6V4H14.1716L18 7.82843Z" fill="#8B909A"/>
</svg>
