<svg width="35" height="35" viewBox="0 0 35 35" fill="none" xmlns="http://www.w3.org/2000/svg">
<path d="M10.9375 17.5C10.9375 16.6946 11.5904 16.0417 12.3958 16.0417H22.6042C23.4096 16.0417 24.0625 16.6946 24.0625 17.5C24.0625 18.3055 23.4096 18.9584 22.6042 18.9584H12.3958C11.5904 18.9584 10.9375 18.3055 10.9375 17.5Z" fill="#0F60FF"/>
<path fill-rule="evenodd" clip-rule="evenodd" d="M32.0846 17.5C32.0846 25.5541 25.5554 32.0834 17.5013 32.0834C9.44715 32.0834 2.91797 25.5541 2.91797 17.5C2.91797 9.44586 9.44715 2.91669 17.5013 2.91669C25.5554 2.91669 32.0846 9.44586 32.0846 17.5ZM29.168 17.5C29.168 23.9434 23.9447 29.1667 17.5013 29.1667C11.058 29.1667 5.83464 23.9434 5.83464 17.5C5.83464 11.0567 11.058 5.83335 17.5013 5.83335C23.9447 5.83335 29.168 11.0567 29.168 17.5Z" fill="#0F60FF"/>
</svg>
