<svg width="22" height="22" viewBox="0 0 22 22" fill="none" xmlns="http://www.w3.org/2000/svg">
<path d="M10.0847 14.2085C10.0847 14.7148 10.4951 15.1252 11.0013 15.1252C11.5075 15.1252 11.918 14.7148 11.918 14.2085V12.8335H13.293C13.7992 12.8335 14.2097 12.4231 14.2097 11.9168C14.2097 11.4106 13.7992 11.0002 13.293 11.0002H11.918V9.62518C11.918 9.1189 11.5075 8.7085 11.0013 8.7085C10.4951 8.7085 10.0847 9.1189 10.0847 9.62518V11.0002H8.70964C8.20337 11.0002 7.79297 11.4106 7.79297 11.9168C7.79297 12.4231 8.20337 12.8335 8.70964 12.8335H10.0847V14.2085Z" fill="#8B909A"/>
<path fill-rule="evenodd" clip-rule="evenodd" d="M9.7023 4.20347L10.9987 5.49984H18.3321C19.3445 5.49984 20.1654 6.32065 20.1654 7.33317V16.4999C20.1654 17.5123 19.3445 18.3332 18.3321 18.3332H3.66536C2.65285 18.3332 1.83203 17.5123 1.83203 16.4999V5.49984C1.83203 4.48731 2.65284 3.6665 3.66536 3.6665H8.40598C8.89221 3.6665 9.35855 3.85965 9.7023 4.20347ZM10.9987 7.33317C10.5125 7.33317 10.0461 7.14001 9.7023 6.7962L8.40598 5.49984H3.66536V16.4999H18.3321V7.33317H10.9987Z" fill="#8B909A"/>
</svg>
