<svg width="45" height="46" viewBox="0 0 45 46" fill="none" xmlns="http://www.w3.org/2000/svg">
<path d="M30.9359 19.089C31.6681 18.3568 31.6681 17.1696 30.9359 16.4374C30.2037 15.7051 29.0164 15.7051 28.2843 16.4374L20.6234 24.0983L17.65 21.1249C16.9178 20.3925 15.7306 20.3925 14.9984 21.1249C14.2662 21.8571 14.2662 23.0444 14.9984 23.7765L19.2976 28.0757C20.0298 28.8079 21.217 28.8079 21.9492 28.0757L30.9359 19.089Z" fill="#0F60FF"/>
<path fill-rule="evenodd" clip-rule="evenodd" d="M7.85197 8.88506C6.49776 9.48693 5.625 10.8299 5.625 12.3118V24.8749C5.625 35.8935 17.5183 41.6263 21.3356 43.1824C22.0871 43.4888 22.9131 43.4888 23.6644 43.1824C27.4817 41.6263 39.375 35.8935 39.375 24.8749V12.3118C39.375 10.8299 38.5022 9.48693 37.1481 8.88506L24.0231 3.05173C23.0533 2.62078 21.9467 2.62078 20.9769 3.05173L7.85197 8.88506ZM30.4884 34.7492C33.4841 32.1401 35.625 28.8968 35.625 24.8749V12.3118L22.5 6.47852L9.375 12.3118V24.8749C9.375 28.8968 11.516 32.1401 14.5117 34.7492C17.3786 37.246 20.6942 38.8495 22.5 39.606C24.3058 38.8495 27.6214 37.246 30.4884 34.7492Z" fill="#0F60FF"/>
</svg>
