<svg width="40" height="40" viewBox="0 0 52 52" fill="none" xmlns="http://www.w3.org/2000/svg">
<path fill-rule="evenodd" clip-rule="evenodd" d="M26.0027 47.6667C37.9688 47.6667 47.6694 37.9661 47.6694 26C47.6694 14.0338 37.9688 4.33334 26.0027 4.33334C14.0364 4.33334 4.33594 14.0338 4.33594 26C4.33594 37.9661 14.0364 47.6667 26.0027 47.6667ZM23.836 33.5833C23.836 34.78 24.8061 35.75 26.0027 35.75C27.1991 35.75 28.1694 34.78 28.1694 33.5833V28.1667H33.586C34.7825 28.1667 35.7527 27.1967 35.7527 26C35.7527 24.8034 34.7825 23.8333 33.586 23.8333H28.1694V18.4167C28.1694 17.2201 27.1991 16.25 26.0027 16.25C24.8061 16.25 23.836 17.2201 23.836 18.4167V23.8333H18.4193C17.2227 23.8333 16.2526 24.8034 16.2526 26C16.2526 27.1967 17.2227 28.1667 18.4193 28.1667H23.836V33.5833Z" fill="#0F60FF"/>
</svg>
