<svg width="45" height="46" viewBox="0 0 45 46" fill="none" xmlns="http://www.w3.org/2000/svg">
<path fill-rule="evenodd" clip-rule="evenodd" d="M30 6.125C28.9644 6.125 28.125 6.96447 28.125 8V15.5C28.125 16.5355 28.9644 17.375 30 17.375H37.5C38.5356 17.375 39.375 16.5355 39.375 15.5V8C39.375 6.96447 38.5356 6.125 37.5 6.125H30ZM31.875 13.625V9.875H35.625V13.625H31.875Z" fill="#0F60FF"/>
<path d="M37.5 24.875C38.5356 24.875 39.375 24.0356 39.375 23C39.375 21.9644 38.5356 21.125 37.5 21.125H30C28.9644 21.125 28.125 21.9644 28.125 23C28.125 24.0356 28.9644 24.875 30 24.875H37.5Z" fill="#0F60FF"/>
<path d="M35.625 37.0625C35.625 36.5448 36.0448 36.125 36.5625 36.125H38.4375C38.9552 36.125 39.375 36.5448 39.375 37.0625V38.9375C39.375 39.4552 38.9552 39.875 38.4375 39.875H36.5625C36.0448 39.875 35.625 39.4552 35.625 38.9375V37.0625Z" fill="#0F60FF"/>
<path d="M28.125 30.5C28.125 29.4644 28.9644 28.625 30 28.625H37.5C38.5356 28.625 39.375 29.4644 39.375 30.5C39.375 31.5356 38.5356 32.375 37.5 32.375H31.875V38C31.875 39.0356 31.0356 39.875 30 39.875C28.9644 39.875 28.125 39.0356 28.125 38V30.5Z" fill="#0F60FF"/>
<path d="M22.5 39.875C21.4644 39.875 20.625 39.0356 20.625 38V30.5C20.625 29.4644 21.4644 28.625 22.5 28.625C23.5356 28.625 24.375 29.4644 24.375 30.5V38C24.375 39.0356 23.5356 39.875 22.5 39.875Z" fill="#0F60FF"/>
<path fill-rule="evenodd" clip-rule="evenodd" d="M7.5 28.625C6.46447 28.625 5.625 29.4644 5.625 30.5V38C5.625 39.0356 6.46447 39.875 7.5 39.875H15C16.0355 39.875 16.875 39.0356 16.875 38V30.5C16.875 29.4644 16.0355 28.625 15 28.625H7.5ZM9.375 36.125V32.375H13.125V36.125H9.375Z" fill="#0F60FF"/>
<path d="M12.6562 14.0938C12.6562 13.576 13.076 13.1562 13.5938 13.1562H16.4062C16.924 13.1562 17.3438 13.576 17.3438 14.0938V16.9062C17.3438 17.424 16.924 17.8438 16.4062 17.8438H13.5938C13.076 17.8438 12.6562 17.424 12.6562 16.9062V14.0938Z" fill="#0F60FF"/>
<path fill-rule="evenodd" clip-rule="evenodd" d="M7.5 6.125C6.46447 6.125 5.625 6.96447 5.625 8V23C5.625 24.0356 6.46447 24.875 7.5 24.875H22.5C23.5356 24.875 24.375 24.0356 24.375 23V8C24.375 6.96447 23.5356 6.125 22.5 6.125H7.5ZM9.375 21.125V9.875H20.625V21.125H9.375Z" fill="#0F60FF"/>
</svg>
