<svg width="25" height="25" viewBox="0 0 30 30" fill="none" xmlns="http://www.w3.org/2000/svg">
<path fill-rule="evenodd" clip-rule="evenodd" d="M17.8947 5C12.8442 5 8.75 9.09424 8.75 14.1447C8.75 19.1952 12.8442 23.2895 17.8947 23.2895C19.9687 23.2895 21.8829 22.5979 23.4167 21.4345L27.2947 25.3125C27.7829 25.8006 28.5744 25.8006 29.0625 25.3125C29.5506 24.8244 29.5506 24.0329 29.0625 23.5448L25.1845 19.6667C26.3479 18.1329 27.0395 16.2188 27.0395 14.1447C27.0395 9.09424 22.9452 5 17.8947 5ZM11.25 14.1447C11.25 10.4749 14.225 7.5 17.8947 7.5C21.5645 7.5 24.5395 10.4749 24.5395 14.1447C24.5395 15.98 23.7971 17.6395 22.5932 18.8433C21.3895 20.0471 19.73 20.7895 17.8947 20.7895C14.225 20.7895 11.25 17.8145 11.25 14.1447Z" fill="#8B909A"/>
<path d="M0 20.625C0 19.9346 0.559644 19.375 1.25 19.375H6.25C6.94036 19.375 7.5 19.9346 7.5 20.625C7.5 21.3154 6.94036 21.875 6.25 21.875H1.25C0.559644 21.875 0 21.3154 0 20.625Z" fill="#8B909A"/>
<path d="M0 14.375C0 13.6846 0.559644 13.125 1.25 13.125H5C5.69036 13.125 6.25 13.6846 6.25 14.375C6.25 15.0654 5.69036 15.625 5 15.625H1.25C0.559644 15.625 0 15.0654 0 14.375Z" fill="#8B909A"/>
<path d="M0 8.125C0 7.43465 0.559644 6.875 1.25 6.875H6.25C6.94036 6.875 7.5 7.43465 7.5 8.125C7.5 8.81536 6.94036 9.375 6.25 9.375H1.25C0.559644 9.375 0 8.81536 0 8.125Z" fill="#8B909A"/>
</svg>
