<svg width="40" height="41" viewBox="0 0 40 41" fill="none" xmlns="http://www.w3.org/2000/svg">
<path fill-rule="evenodd" clip-rule="evenodd" d="M26.6654 12.1667C26.6654 15.8486 23.6805 18.8333 19.9987 18.8333C16.3168 18.8333 13.332 15.8486 13.332 12.1667C13.332 8.48477 16.3168 5.5 19.9987 5.5C23.6805 5.5 26.6654 8.48477 26.6654 12.1667ZM23.332 12.1667C23.332 14.0076 21.8397 15.5 19.9987 15.5C18.1577 15.5 16.6654 14.0076 16.6654 12.1667C16.6654 10.3257 18.1577 8.83333 19.9987 8.83333C21.8397 8.83333 23.332 10.3257 23.332 12.1667Z" fill="#0F60FF"/>
<path fill-rule="evenodd" clip-rule="evenodd" d="M33.3346 29.111C33.3346 28.3889 33.1083 27.679 32.6371 27.1317C29.5808 23.5814 25.0535 21.3334 20.0013 21.3334C14.9491 21.3334 10.4219 23.5814 7.36542 27.1317C6.89424 27.679 6.66797 28.3889 6.66797 29.111V32.1667C6.66797 34.0077 8.16035 35.5 10.0013 35.5H30.0013C31.8423 35.5 33.3346 34.0077 33.3346 32.1667V29.111ZM30.0013 29.1805C27.5535 26.4075 23.9825 24.6667 20.0013 24.6667C16.0202 24.6667 12.4492 26.4075 10.0013 29.1805V32.1667H30.0013V29.1805Z" fill="#0F60FF"/>
</svg>
