<svg width="24" height="24" viewBox="0 0 24 24" fill="none" xmlns="http://www.w3.org/2000/svg">
<g clip-path="url(#clip0_27_252)">
<path fill-rule="evenodd" clip-rule="evenodd" d="M14 7C14 9.20914 12.2091 11 10 11C7.79086 11 6 9.20914 6 7C6 4.79086 7.79086 3 10 3C12.2091 3 14 4.79086 14 7ZM12 7C12 8.10457 11.1046 9 10 9C8.89543 9 8 8.10457 8 7C8 5.89543 8.89543 5 10 5C11.1046 5 12 5.89543 12 7Z" fill="black"/>
<path fill-rule="evenodd" clip-rule="evenodd" d="M18 17.1666C18 16.7333 17.8642 16.3074 17.5815 15.979C15.7477 13.8488 13.0313 12.5 10 12.5C6.96866 12.5 4.25235 13.8488 2.41847 15.979C2.13576 16.3074 2 16.7333 2 17.1666V19C2 20.1046 2.89543 21 4 21H16C17.1046 21 18 20.1046 18 19V17.1666ZM16 17.2083C14.5313 15.5445 12.3887 14.5 10 14.5C7.61132 14.5 5.46872 15.5445 4 17.2083V19H16V17.2083ZM4.00017 17.1622L4.00017 17.1623L4.00012 17.1627L4.00017 17.1622Z" fill="black"/>
<path d="M20 13C19.4477 13 19 12.5523 19 12V10H17C16.4477 10 16 9.55229 16 9C16 8.44772 16.4477 8 17 8H19V6C19 5.44772 19.4477 5 20 5C20.5523 5 21 5.44772 21 6V8H23C23.5523 8 24 8.44772 24 9C24 9.55229 23.5523 10 23 10H21V12C21 12.5523 20.5523 13 20 13Z" fill="black"/>
</g>
<defs>
<clipPath id="clip0_27_252">
<rect width="24" height="24" fill="white"/>
</clipPath>
</defs>
</svg>
